HIERARCHY
ROOT Hips
{
	OFFSET 0.000000 0.000000 0.000000
	CHANNELS 6 Xposition Yposition Zposition Zrotation Yrotation Xrotation 
	JOINT LeftUpLeg_virtual
	{
		OFFSET 0.000000 0.000000 0.000000
		CHANNELS 3 Zrotation Yrotation Xrotation
		JOINT LeftUpLeg
		{
			OFFSET 8.479694 -4.795517 -0.379053
			CHANNELS 3 Zrotation Yrotation Xrotation
			JOINT LeftLeg
			{
				OFFSET 0.485052 -32.551468 0.112863
				CHANNELS 3 Zrotation Yrotation Xrotation
				JOINT LeftFoot
				{
					OFFSET 0.438033 -32.635670 -3.012641
					CHANNELS 3 Zrotation Yrotation Xrotation
					JOINT LeftToeBase
					{
						OFFSET 0.970169 -13.225353 11.864223
						CHANNELS 3 Zrotation Yrotation Xrotation
						End Site
						{
							OFFSET 0.000000 0.000000 0.000000
						}
					}
				}
			}
		}
	}
	JOINT RightUpLeg_virtual
	{
		OFFSET 0.000000 0.000000 0.000000
		CHANNELS 3 Zrotation Yrotation Xrotation
		JOINT RightUpLeg
		{
			OFFSET -8.479694 -4.795517 -0.379053
			CHANNELS 3 Zrotation Yrotation Xrotation
			JOINT RightLeg
			{
				OFFSET -0.484100 -32.551483 0.112903
				CHANNELS 3 Zrotation Yrotation Xrotation
				JOINT RightFoot
				{
					OFFSET -0.438985 -32.635651 -3.012681
					CHANNELS 3 Zrotation Yrotation Xrotation
					JOINT RightToeBase
					{
						OFFSET -0.970169 -13.225354 11.864223
						CHANNELS 3 Zrotation Yrotation Xrotation
						End Site
						{
							OFFSET 0.000000 0.000000 0.000000
						}
					}
				}
			}
		}
	}
	JOINT Spine_virtual
	{
		OFFSET 0.000000 0.000000 0.000000
		CHANNELS 3 Zrotation Yrotation Xrotation
		JOINT Spine
		{
			OFFSET 0.000000 7.722015 1.166203
			CHANNELS 3 Zrotation Yrotation Xrotation
			JOINT Spine1
			{
				OFFSET 0.000000 12.024086 0.248766
				CHANNELS 3 Zrotation Yrotation Xrotation
				JOINT Spine2
				{
					OFFSET -0.000000 11.503036 -0.491240
					CHANNELS 3 Zrotation Yrotation Xrotation
					JOINT Neck_virtual
					{
						OFFSET 0.000000 0.000000 0.000000
						CHANNELS 3 Zrotation Yrotation Xrotation
						JOINT Neck
						{
							OFFSET 0.000000 18.430687 -3.123054
							CHANNELS 3 Zrotation Yrotation Xrotation
							JOINT Head
							{
								OFFSET -0.000000 9.051071 1.034021
								CHANNELS 3 Zrotation Yrotation Xrotation
								End Site
								{
									OFFSET 0.000000 0.000000 0.000000
								}
							}
						}
					}
					JOINT LeftShoulder_virtual
					{
						OFFSET 0.000000 0.000000 0.000000
						CHANNELS 3 Zrotation Yrotation Xrotation
						JOINT LeftShoulder
						{
							OFFSET 6.197824 13.665230 -4.064723
							CHANNELS 3 Zrotation Yrotation Xrotation
							JOINT LeftArm
							{
								OFFSET 7.778132 -0.187073 -1.709282
								CHANNELS 3 Zrotation Yrotation Xrotation
								JOINT LeftForeArm
								{
									OFFSET 21.954697 0.000000 -2.041093
									CHANNELS 3 Zrotation Yrotation Xrotation
									JOINT LeftHand
									{
										OFFSET 22.992908 0.000000 -0.870901
										CHANNELS 3 Zrotation Yrotation Xrotation
										End Site
										{
											OFFSET 0.000000 0.000000 0.000000
										}
									}
								}
							}
						}
					}
					JOINT RightShoulder_virtual
					{
						OFFSET 0.000000 0.000000 0.000000
						CHANNELS 3 Zrotation Yrotation Xrotation
						JOINT RightShoulder
						{
							OFFSET -6.197824 13.665230 -4.064723
							CHANNELS 3 Zrotation Yrotation Xrotation
							JOINT RightArm
							{
								OFFSET -7.778132 -0.187073 -1.709282
								CHANNELS 3 Zrotation Yrotation Xrotation
								JOINT RightForeArm
								{
									OFFSET -21.954697 0.000000 -2.041093
									CHANNELS 3 Zrotation Yrotation Xrotation
									JOINT RightHand
									{
										OFFSET -22.992908 0.000000 -0.870901
										CHANNELS 3 Zrotation Yrotation Xrotation
										End Site
										{
											OFFSET 0.000000 0.000000 0.000000
										}
									}
								}
							}
						}
					}
				}
			}
		}
	}
}
MOTION
Frames: 11
Frame Time: 0.033333
2.814337 81.814888 -8.064559 179.879944 1.529080 -179.805932 -5.039712 -0.729798 10.675195 3.990395 -0.546512 -20.486449 9.655761 6.167879 30.966152 -2.480984 -4.632160 -8.676595 0.000000 0.000000 0.000000 -0.899858 -0.977004 10.699062 -3.275809 1.691082 -16.899058 -0.868625 5.212242 26.380120 9.397655 7.368383 -9.066351 0.000000 0.000000 0.000000 2.164418 1.958590 -3.816720 -5.545374 2.826231 -0.919269 -0.220426 -2.605281 4.591563 0.006971 -0.000923 0.040486 -0.594273 -1.346020 5.103905 0.669326 -2.851434 -8.043357 0.000000 0.000000 0.000000 0.989276 -0.549545 2.127201 14.019076 2.919062 -4.136832 -8.583950 1.769544 -47.817348 0.770113 -34.845965 -8.178628 0.000000 0.000000 0.000000 -3.124856 0.668143 1.609519 4.913214 -14.614588 -4.017522 8.089600 -8.987900 -49.855613 1.778798 33.243091 -3.610214 0.000000 0.000000 0.000000 
2.808987 81.812866 -8.085364 179.919504 1.727237 -179.649930 -4.946545 -0.671233 10.806129 4.032640 -0.539937 -20.334537 9.915365 6.191445 31.137419 -2.258044 -4.431195 -8.484895 0.000000 0.000000 0.000000 -0.721740 -0.979788 10.829034 -3.566311 1.891775 -16.732814 -0.544689 5.698156 26.578185 9.845386 7.784839 -8.844800 0.000000 0.000000 0.000000 2.165647 1.997680 -3.879600 -5.525938 2.787578 -0.984678 -0.201943 -2.597811 4.557538 0.041365 0.022966 0.092811 -0.596510 -1.364041 5.108868 0.715221 -2.834760 -7.966161 0.000000 0.000000 0.000000 0.918217 -0.435576 2.068981 13.931001 3.040450 -4.258055 -8.523871 1.846195 -47.964191 0.623189 -34.727079 -8.023948 0.000000 0.000000 0.000000 -3.151602 0.727389 1.636938 4.980165 -14.544304 -4.119299 8.098873 -8.942393 -50.112832 1.904495 33.161518 -3.511435 0.000000 0.000000 0.000000 
2.792002 81.793312 -8.111818 179.832310 1.551575 -179.650791 -4.947425 -0.651528 10.786575 3.922786 -0.548933 -20.315440 9.950573 6.103578 31.156294 -2.189565 -4.478637 -8.519325 0.000000 0.000000 0.000000 -0.948743 -0.965176 10.849793 -3.369377 1.838958 -16.666906 -0.621117 5.672376 26.554722 9.918285 7.791800 -8.876107 0.000000 0.000000 0.000000 2.105687 2.001099 -3.885144 -5.538456 2.780256 -0.997037 -0.262939 -2.598923 4.599613 -0.017364 -0.009357 0.082623 -0.558889 -1.287785 5.121531 0.748223 -2.851348 -7.990205 0.000000 0.000000 0.000000 0.995143 -0.486376 2.105601 13.886628 3.048722 -4.206772 -8.443816 1.803892 -47.812905 0.778203 -34.721622 -8.200099 0.000000 0.000000 0.000000 -3.102598 0.711891 1.561266 4.976945 -14.517407 -4.153345 8.157524 -8.964290 -50.163710 1.973380 33.056838 -3.410003 0.000000 0.000000 0.000000 
2.759893 81.775055 -8.129907 179.831245 1.661927 -179.655340 -4.885416 -0.598679 10.758145 3.830787 -0.539990 -20.281540 9.938146 6.120383 31.184301 -2.137784 -4.571886 -8.580609 0.000000 0.000000 0.000000 -0.943434 -0.900335 10.857403 -3.359666 1.860682 -16.628205 -0.700634 5.735889 26.501344 10.010436 7.721677 -8.962014 0.000000 0.000000 0.000000 2.116687 2.064755 -3.842630 -5.473207 2.776127 -1.048021 -0.272840 -2.562341 4.626815 -0.007650 0.007526 0.083395 -0.560535 -1.256337 5.061204 0.818524 -2.844985 -8.048546 0.000000 0.000000 0.000000 0.969500 -0.447633 2.067409 13.836765 3.078431 -4.186083 -8.401126 1.844577 -47.820521 0.889400 -34.623059 -8.308712 0.000000 0.000000 0.000000 -3.121804 0.695024 1.559762 5.059396 -14.532455 -4.230052 8.229449 -8.942183 -50.407862 1.999485 32.822163 -3.406983 0.000000 0.000000 0.000000 
2.720955 81.761902 -8.135544 179.933588 1.728434 -179.657553 -4.748324 -0.525604 10.741870 3.844161 -0.495500 -20.243912 9.828045 6.232960 31.199037 -2.080070 -4.649815 -8.675814 0.000000 0.000000 0.000000 -0.799011 -0.811687 10.880378 -3.407492 1.903525 -16.587425 -0.784008 5.784957 26.425100 10.109791 7.607245 -9.023829 0.000000 0.000000 0.000000 2.190024 2.075215 -3.675764 -5.353072 2.696813 -1.184569 -0.262692 -2.572337 4.568484 0.018947 -0.001184 0.162648 -0.652201 -1.306579 4.943063 0.807290 -2.757150 -8.126051 0.000000 0.000000 0.000000 0.891794 -0.351892 1.995156 13.727595 3.361088 -4.462645 -8.401863 1.851718 -47.714066 0.822837 -34.465705 -8.224901 0.000000 0.000000 0.000000 -3.181214 0.748780 1.599940 5.153233 -14.404690 -4.205767 8.305386 -8.897113 -50.568678 1.878836 32.673887 -3.533825 0.000000 0.000000 0.000000 
2.693595 81.758263 -8.128069 179.828554 1.524896 -179.680926 -4.713075 -0.476987 10.751404 3.655641 -0.427909 -20.223992 9.784061 6.168489 31.143340 -2.070373 -4.755670 -8.720910 0.000000 0.000000 0.000000 -0.952055 -0.789934 10.958467 -3.280903 1.868961 -16.529684 -0.855567 5.751906 26.326208 10.232849 7.580610 -9.046037 0.000000 0.000000 0.000000 2.168562 2.124249 -3.571287 -5.311518 2.674685 -1.298630 -0.321558 -2.519565 4.656398 -0.004467 -0.011933 0.068308 -0.641665 -1.221263 5.112113 0.855417 -2.683127 -7.909754 0.000000 0.000000 0.000000 0.921501 -0.451887 2.130468 13.650080 3.355525 -4.452235 -8.414148 1.878913 -47.629446 0.899954 -34.402611 -8.255977 0.000000 0.000000 0.000000 -3.197572 0.780680 1.572777 5.241565 -14.439676 -4.286189 8.427998 -9.187025 -50.628026 1.982720 32.712518 -3.367631 0.000000 0.000000 0.000000 
2.663225 81.771957 -8.113625 179.937864 1.581322 -179.681131 -4.595636 -0.429659 10.800695 3.689887 -0.331272 -20.206309 9.595358 6.301562 31.018095 -2.044009 -4.779824 -8.764230 0.000000 0.000000 0.000000 -0.756893 -0.729277 11.031580 -3.426286 1.871634 -16.535663 -0.927252 5.769003 26.168669 10.324726 7.465982 -9.047003 0.000000 0.000000 0.000000 2.266059 2.167408 -3.451377 -5.175074 2.617148 -1.421626 -0.312226 -2.454563 4.723875 0.023904 0.020339 0.049982 -0.719330 -1.223012 5.111699 0.866851 -2.579953 -7.847088 0.000000 0.000000 0.000000 0.837265 -0.407274 2.119590 13.486890 3.447839 -4.611959 -8.446121 2.076041 -47.493317 0.952405 -34.282775 -8.189504 0.000000 0.000000 0.000000 -3.274226 0.800891 1.587011 5.370684 -14.406536 -4.302025 8.440943 -9.273664 -50.666784 1.912701 32.685010 -3.406185 0.000000 0.000000 0.000000 
2.657691 81.802513 -8.072418 179.881119 1.597497 -179.723287 -4.539970 -0.423505 10.884404 3.651688 -0.259718 -20.164604 9.468550 6.331537 30.839066 -2.042964 -4.771804 -8.712698 0.000000 0.000000 0.000000 -0.756254 -0.721020 11.121844 -3.457598 1.840702 -16.571188 -0.950979 5.808634 25.935051 10.408407 7.400906 -9.054251 0.000000 0.000000 0.000000 2.304528 2.241439 -3.161094 -5.112772 2.557278 -1.681992 -0.353403 -2.370936 4.763182 0.017205 0.044958 0.094498 -0.719326 -1.172842 5.098945 0.874272 -2.468084 -7.731431 0.000000 0.000000 0.000000 0.843909 -0.385790 2.227716 13.349506 3.531159 -4.808868 -8.472078 2.220489 -47.318803 0.997655 -34.283479 -8.123660 0.000000 0.000000 0.000000 -3.285210 0.819581 1.615008 5.463621 -14.372805 -4.382526 8.479268 -9.553030 -50.803190 1.977184 32.697468 -3.294627 0.000000 0.000000 0.000000 
2.682401 81.840996 -7.994534 179.826996 1.428305 -179.780920 -4.505581 -0.410403 10.961850 3.677611 -0.241227 -20.130511 9.232975 6.344457 30.620028 -2.073449 -4.756380 -8.677229 0.000000 0.000000 0.000000 -0.833177 -0.686156 11.237466 -3.379884 1.756246 -16.583981 -0.969243 5.753321 25.685157 10.436641 7.364454 -9.014797 0.000000 0.000000 0.000000 2.323027 2.230492 -2.888022 -5.057005 2.378319 -1.873354 -0.402015 -2.351178 4.837438 0.024290 0.017063 0.029406 -0.742476 -1.096603 5.213778 0.843908 -2.375305 -7.570633 0.000000 0.000000 0.000000 0.828182 -0.235355 2.331853 13.134068 3.455842 -4.817346 -8.497859 2.568128 -46.899115 1.334092 -34.496461 -8.284051 0.000000 0.000000 0.000000 -3.293266 0.936795 1.739158 5.660586 -14.196227 -4.321281 8.502641 -9.844582 -51.151755 2.057389 32.672189 -3.206075 0.000000 0.000000 0.000000 
2.741831 81.880821 -7.888553 179.898713 1.319958 -179.788529 -4.404795 -0.361428 10.997889 3.947854 -0.296727 -20.111746 8.886181 6.449340 30.402634 -2.058809 -4.645575 -8.685941 0.000000 0.000000 0.000000 -0.600577 -0.577429 11.316500 -3.491227 1.642341 -16.607631 -0.978336 5.644977 25.383747 10.425314 7.297144 -8.990904 0.000000 0.000000 0.000000 2.419500 2.294350 -2.639383 -4.931751 2.181368 -2.060649 -0.406198 -2.302210 4.987866 0.020253 0.017462 0.007433 -0.763126 -1.063449 5.269196 0.824271 -2.263772 -7.396216 0.000000 0.000000 0.000000 0.819754 -0.233968 2.353645 12.920270 3.543276 -5.134269 -8.470289 2.936907 -46.526771 1.465098 -34.825734 -8.089136 0.000000 0.000000 0.000000 -3.307850 0.971202 1.783665 5.916482 -14.034661 -4.341805 8.624578 -10.217798 -51.198169 1.886922 32.762054 -3.330497 0.000000 0.000000 0.000000 
2.867885 81.916969 -7.758707 179.921362 1.156424 -179.835466 -4.337889 -0.281861 11.028848 4.219582 -0.474346 -20.097526 8.504225 6.496065 30.222279 -2.106256 -4.572276 -8.726379 0.000000 0.000000 0.000000 -0.572837 -0.490195 11.448778 -3.431886 1.464830 -16.540857 -0.936873 5.569119 25.095505 10.358914 7.242000 -8.997005 0.000000 0.000000 0.000000 2.439531 2.411800 -2.357207 -4.832009 1.902010 -2.248469 -0.417945 -2.289896 5.139219 0.029208 0.012249 -0.023236 -0.807538 -1.046247 5.402089 0.758853 -2.119477 -7.061294 0.000000 0.000000 0.000000 0.819697 -0.226666 2.385847 12.630674 3.478482 -5.259387 -8.472317 3.340595 -45.919140 1.713062 -35.484089 -7.936191 0.000000 0.000000 0.000000 -3.320652 1.022445 1.937196 6.158805 -13.752379 -4.314866 8.800764 -10.551512 -51.533029 1.857292 33.087458 -3.343492 0.000000 0.000000 0.000000 
